<?xml version="1.0" standalone="yes"?>

<svg version="1.1" viewBox="0.0 0.0 433.0 719.0" fill="none" stroke="none" stroke-linecap="square" stroke-miterlimit="10" xmlns="http://www.w3.org/2000/svg" xmlns:xlink="http://www.w3.org/1999/xlink"><clipPath id="p.0"><path d="m0 0l433.0 0l0 719.0l-433.0 0l0 -719.0z" clip-rule="nonzero"></path></clipPath><g clip-path="url(#p.0)"><path fill="#000000" fill-opacity="0.0" d="m0 0l433.07086 0l0 719.91077l-433.07086 0z" fill-rule="nonzero"></path><path fill="#666666" d="m0 719.99225l387.84253 -719.6221l387.84253 719.6221z" fill-rule="nonzero"></path><path fill="#ffffff" d="m239.38306 272.18896l148.45825 -272.18896l149.27405 272.18896z" fill-rule="nonzero"></path><path fill="#ffffff" d="m295.05527 272.1678l-27.84253 54.42517l-27.842514 -54.42517z" fill-rule="nonzero"></path><path fill="#ffffff" d="m325.73853 271.4271l-27.84253 45.763794l-27.84253 -45.763794z" fill-rule="nonzero"></path><path fill="#ffffff" d="m366.81094 272.1678l-27.84253 54.42517l-27.842499 -54.42517z" fill-rule="nonzero"></path><path fill="#ffffff" d="m406.64337 272.1678l-50.983 54.42517l-4.7020264 -54.42517z" fill-rule="nonzero"></path><path fill="#ffffff" d="m453.44095 272.1678l-27.84253 54.42517l-27.842499 -54.42517z" fill-rule="nonzero"></path><path fill="#ffffff" d="m487.31992 271.4454l-27.842499 92.75592l-27.84253 -92.75592z" fill-rule="nonzero"></path><path fill="#ffffff" d="m530.6688 272.1678l-27.842499 54.42517l-27.84253 -54.42517z" fill-rule="nonzero"></path><path fill="#000000" fill-opacity="0.0" d="m239.37022 272.1678l291.30707 0" fill-rule="nonzero"></path><path stroke="#ffffff" stroke-width="4.0" stroke-linejoin="round" stroke-linecap="butt" d="m239.37022 272.1678l291.30707 0" fill-rule="nonzero"></path></g></svg>

